<svg width="520" height="903" viewBox="0 0 520 903" fill="none" xmlns="http://www.w3.org/2000/svg">
<path d="M156 321.5C156 364.302 121.078 399 78 399C34.9218 399 0 364.302 0 321.5C0 278.698 34.9218 244 78 244C121.078 244 156 278.698 156 321.5Z" fill="#074689"/>
<path d="M520 101.5C520 132.152 494.928 157 464 157C433.072 157 408 132.152 408 101.5C408 70.8482 433.072 46 464 46C494.928 46 520 70.8482 520 101.5Z" fill="#074689"/>
<path d="M217 86C217 102.569 203.345 116 186.5 116C169.655 116 156 102.569 156 86C156 69.4315 169.655 56 186.5 56C203.345 56 217 69.4315 217 86Z" fill="#074689"/>
<path d="M54 17.5C54 27.165 45.9411 35 36 35C26.0589 35 18 27.165 18 17.5C18 7.83502 26.0589 0 36 0C45.9411 0 54 7.83502 54 17.5Z" fill="#074689"/>
<path d="M0.470743 725.234V539.53C386.5 472 495 648.497 479.076 902.011H127.41C16.2523 886.297 -3.53184 777.612 0.470743 725.234Z" fill="#074689"/>
</svg>
