<svg width="26" height="19" viewBox="0 0 26 19" fill="none" xmlns="http://www.w3.org/2000/svg">
<path d="M24.8366 8.556C22.1347 2.86435 18.0505 0 12.5755 0C7.0976 0 3.01625 2.86435 0.31436 8.55885C0.205986 8.78833 0.14978 9.03897 0.14978 9.29275C0.14978 9.54653 0.205986 9.79717 0.31436 10.0267C3.01625 15.7183 7.10045 18.5827 12.5755 18.5827C18.0534 18.5827 22.1347 15.7183 24.8366 10.0238C25.0561 9.56209 25.0561 9.02627 24.8366 8.556ZM12.5755 16.5306C7.97828 16.5306 4.61231 14.1992 2.23818 9.29133C4.61231 4.38345 7.97828 2.05207 12.5755 2.05207C17.1727 2.05207 20.5387 4.38345 22.9128 9.29133C20.5415 14.1992 17.1755 16.5306 12.5755 16.5306ZM12.4615 4.27515C9.69119 4.27515 7.44531 6.52103 7.44531 9.29133C7.44531 12.0616 9.69119 14.3075 12.4615 14.3075C15.2318 14.3075 17.4777 12.0616 17.4777 9.29133C17.4777 6.52103 15.2318 4.27515 12.4615 4.27515ZM12.4615 12.4834C10.6973 12.4834 9.26937 11.0555 9.26937 9.29133C9.26937 7.52711 10.6973 6.09921 12.4615 6.09921C14.2257 6.09921 15.6536 7.52711 15.6536 9.29133C15.6536 11.0555 14.2257 12.4834 12.4615 12.4834Z" fill="#8C8C8C"/>
</svg>
