<svg width="800" height="800" viewBox="0 0 800 800" fill="none" xmlns="http://www.w3.org/2000/svg">
<path d="M800 711.111C800 734.686 790.635 757.295 773.965 773.965C757.295 790.635 734.686 800 711.111 800H88.8889C65.3141 800 42.7049 790.635 26.035 773.965C9.36505 757.295 0 734.686 0 711.111V88.8889C0 65.3141 9.36505 42.7049 26.035 26.035C42.7049 9.36505 65.3141 0 88.8889 0L711.111 0C734.686 0 757.295 9.36505 773.965 26.035C790.635 42.7049 800 65.3141 800 88.8889V711.111Z" fill="#4FD1D9"/>
<path d="M213.622 135.467H188.711C168.444 135.467 160 120.689 160 106.334C160 91.556 170.555 77.2005 188.711 77.2005H248.666C266.822 77.2005 276.955 90.2893 276.955 107.178V347.4C276.955 368.512 263.444 380.312 245.288 380.312C227.133 380.312 213.622 368.489 213.622 347.4V135.467ZM327.6 504.956C327.6 531.534 316.2 554.756 292.977 569.534C323.377 583.467 344.488 611.756 344.488 645.089C344.488 695.756 298.044 738.378 238.088 738.378C175.6 738.378 136.777 692.378 136.777 659.023C136.777 642.578 154.088 630.756 169.288 630.756C197.977 630.756 191.244 680.156 238.933 680.156C260.888 680.156 278.622 663.267 278.622 640.889C278.622 581.778 206.844 625.267 206.844 575.467C206.844 531.134 266.8 561.112 266.8 514.245C266.8 498.2 255.4 485.956 236.4 485.956C196.288 485.956 201.777 527.334 173.066 527.334C155.755 527.334 145.622 511.712 145.622 496.089C145.622 463.178 190.8 427.712 237.666 427.712C298.466 427.689 327.6 472 327.6 504.956ZM624.777 322.045C643.355 322.045 657.666 330.489 657.666 349.912C657.666 369.334 643.355 377.778 627.288 377.778H486.266C467.711 377.778 453.377 369.334 453.377 349.912C453.377 341.045 458.844 333.445 463.088 328.378C498.133 286.578 536.111 248.6 568.177 202.156C575.8 191.178 582.977 178.089 582.977 162.889C582.977 145.578 569.866 130.378 552.577 130.378C504.022 130.378 527.244 198.778 486.711 198.778C466.444 198.778 455.888 184.423 455.888 167.956C455.888 114.756 503.177 72.1338 555.111 72.1338C607.022 72.1338 648.822 106.334 648.822 159.934C648.822 218.623 583.4 276.867 547.511 322.045H624.777ZM470.688 667.067C450 667.067 441.133 653.134 441.133 642.156C441.133 632.867 444.511 627.8 447.066 623.578L541.622 452.178C550.911 435.289 562.733 427.689 584.688 427.689C609.177 427.689 633.222 443.312 633.222 481.734V611.334H640.4C656.866 611.334 669.955 622.312 669.955 639.2C669.955 656.089 656.866 667.067 640.4 667.067H633.222V702.934C633.222 725.312 624.377 735.889 602.844 735.889C581.311 735.889 572.444 725.312 572.444 702.934V667.067H470.688ZM572.422 493.556H571.577L514.599 611.334H572.444L572.422 493.556Z" fill="white"/>
</svg>
