<svg width="800" height="800" viewBox="0 0 800 800" fill="none" xmlns="http://www.w3.org/2000/svg">
<path d="M800 711.111C800 734.686 790.635 757.295 773.965 773.965C757.295 790.635 734.686 800 711.111 800H88.8889C65.3141 800 42.7049 790.635 26.035 773.965C9.36505 757.295 0 734.686 0 711.111V88.8889C0 65.3141 9.36505 42.7049 26.035 26.035C42.7049 9.36505 65.3141 0 88.8889 0L711.111 0C734.686 0 757.295 9.36505 773.965 26.035C790.635 42.7049 800 65.3141 800 88.8889V711.111Z" fill="#4FD1D9"/>
<path d="M282.973 387.855C260.317 387.855 240.146 384.766 222.462 378.587C204.777 372.479 189.827 363.494 177.611 351.634C165.395 339.844 156.091 325.426 149.699 308.381C143.307 291.335 140.111 271.946 140.111 250.213C140.111 228.764 143.307 209.304 149.699 191.832C156.162 174.361 165.572 159.375 177.93 146.875C190.288 134.304 205.381 124.645 223.207 117.898C241.105 111.151 261.489 107.777 284.358 107.777C305.523 107.777 324.415 110.866 341.034 117.045C357.724 123.224 371.858 132.031 383.435 143.466C395.082 154.83 403.925 168.359 409.962 184.055C416.07 199.68 419.088 216.974 419.017 235.938C419.088 249.006 417.952 261.009 415.608 271.946C413.264 282.884 409.571 292.436 404.528 300.604C399.557 308.7 393.023 315.128 384.926 319.886C376.83 324.574 367.028 327.237 355.523 327.876C347.284 328.516 340.608 327.912 335.494 326.065C330.381 324.219 326.474 321.484 323.776 317.862C321.148 314.169 319.443 309.872 318.662 304.972H317.384C315.679 309.233 312.341 313.104 307.369 316.584C302.398 319.993 296.325 322.656 289.152 324.574C282.05 326.42 274.486 327.095 266.46 326.598C258.08 326.101 250.125 324.148 242.597 320.739C235.139 317.33 228.499 312.393 222.675 305.93C216.922 299.467 212.376 291.477 209.038 281.96C205.771 272.443 204.102 261.435 204.031 248.935C204.102 236.577 205.842 225.817 209.251 216.655C212.732 207.493 217.313 199.787 222.994 193.537C228.747 187.287 235.139 182.386 242.17 178.835C249.202 175.284 256.268 173.011 263.371 172.017C271.396 170.81 278.996 170.81 286.169 172.017C293.342 173.224 299.379 175.178 304.28 177.876C309.251 180.575 312.341 183.487 313.548 186.612H315.04V174.68H348.385V278.658C348.456 283.558 349.557 287.358 351.688 290.057C353.818 292.756 356.695 294.105 360.317 294.105C365.217 294.105 369.301 291.939 372.568 287.607C375.906 283.274 378.392 276.634 380.026 267.685C381.73 258.736 382.582 247.337 382.582 233.487C382.582 220.135 380.807 208.416 377.256 198.331C373.776 188.175 368.875 179.545 362.554 172.443C356.304 165.27 349.024 159.446 340.714 154.972C332.405 150.497 323.385 147.23 313.655 145.17C303.996 143.111 294.053 142.081 283.825 142.081C266.141 142.081 250.693 144.78 237.483 150.178C224.273 155.504 213.264 162.997 204.457 172.656C195.651 182.315 189.045 193.643 184.642 206.641C180.31 219.567 178.108 233.665 178.037 248.935C178.108 265.767 180.452 280.682 185.068 293.679C189.756 306.605 196.645 317.472 205.736 326.278C214.827 335.085 226.048 341.761 239.401 346.307C252.753 350.852 268.094 353.125 285.423 353.125C293.591 353.125 301.581 352.521 309.393 351.314C317.206 350.178 324.273 348.757 330.594 347.053C336.915 345.419 341.993 343.821 345.828 342.259L356.375 373.153C351.901 375.71 345.828 378.089 338.158 380.291C330.558 382.564 321.964 384.375 312.376 385.724C302.859 387.145 293.058 387.855 282.973 387.855ZM278.072 291.548C286.737 291.548 293.626 289.879 298.74 286.541C303.925 283.203 307.618 278.267 309.82 271.733C312.092 265.128 313.158 256.996 313.016 247.337C312.945 238.814 311.844 231.605 309.713 225.71C307.653 219.744 304.067 215.234 298.953 212.18C293.911 209.055 286.879 207.493 277.859 207.493C269.976 207.493 263.264 209.162 257.724 212.5C252.256 215.838 248.065 220.526 245.153 226.562C242.313 232.528 240.857 239.56 240.786 247.656C240.857 255.185 242.064 262.322 244.408 269.07C246.751 275.746 250.622 281.179 256.02 285.369C261.418 289.489 268.768 291.548 278.072 291.548ZM601.297 325L637.092 106.818H671.183L635.388 325H601.297ZM503.605 270.881L509.251 236.79H679.706L674.06 270.881H503.605ZM524.592 325L560.388 106.818H594.479L558.683 325H524.592ZM516.07 195.028L521.822 160.938H692.277L686.524 195.028H516.07ZM207.014 691.196C191.957 691.196 178.96 688.497 168.023 683.099C157.085 677.702 148.669 670.386 142.774 661.153C136.95 651.849 134.038 641.48 134.038 630.045C134.038 621.523 135.743 613.959 139.152 607.354C142.561 600.749 147.32 594.676 153.428 589.136C159.536 583.526 166.638 577.95 174.734 572.411L217.028 544.605C222.497 541.125 226.51 537.467 229.067 533.632C231.624 529.726 232.902 525.5 232.902 520.955C232.902 516.622 231.162 512.609 227.682 508.916C224.202 505.223 219.266 503.412 212.874 503.483C208.612 503.483 204.919 504.442 201.794 506.359C198.669 508.206 196.219 510.656 194.443 513.71C192.739 516.693 191.886 520.031 191.886 523.724C191.886 528.27 193.165 532.886 195.722 537.574C198.278 542.261 201.688 547.233 205.949 552.489C210.21 557.673 214.862 563.284 219.905 569.321L323.349 688H276.048L189.756 591.906C184.074 585.443 178.392 578.696 172.71 571.665C167.099 564.562 162.412 557.034 158.648 549.08C154.884 541.054 153.001 532.354 153.001 522.979C153.001 512.396 155.452 502.879 160.352 494.428C165.324 485.976 172.284 479.3 181.233 474.399C190.182 469.428 200.622 466.942 212.554 466.942C224.202 466.942 234.251 469.321 242.703 474.08C251.226 478.767 257.76 485.017 262.305 492.83C266.922 500.571 269.23 509.094 269.23 518.398C269.23 528.696 266.673 538.036 261.56 546.416C256.517 554.726 249.415 562.183 240.253 568.788L195.722 600.855C189.685 605.259 185.21 609.768 182.298 614.385C179.457 618.93 178.037 623.298 178.037 627.489C178.037 632.673 179.315 637.325 181.872 641.445C184.429 645.564 188.051 648.831 192.739 651.246C197.426 653.589 202.93 654.761 209.251 654.761C216.922 654.761 224.486 653.021 231.943 649.541C239.472 645.99 246.29 640.983 252.398 634.52C258.577 627.986 263.513 620.244 267.206 611.295C270.899 602.347 272.746 592.439 272.746 581.572H310.352C310.352 594.925 308.896 606.963 305.984 617.688C303.072 628.341 299.024 637.645 293.839 645.599C288.655 653.483 282.724 659.946 276.048 664.989C273.918 666.338 271.858 667.616 269.869 668.824C267.881 670.031 265.821 671.31 263.69 672.659C255.594 679.193 246.538 683.916 236.524 686.828C226.581 689.74 216.744 691.196 207.014 691.196ZM553.996 715.273V442.545H571.467V715.273H553.996ZM600.338 532.567C599.486 523.973 595.828 517.297 589.365 512.538C582.902 507.78 574.131 505.401 563.051 505.401C555.523 505.401 549.166 506.466 543.982 508.597C538.797 510.656 534.82 513.533 532.05 517.226C529.351 520.919 528.001 525.109 528.001 529.797C527.859 533.703 528.676 537.112 530.452 540.024C532.298 542.936 534.82 545.457 538.016 547.588C541.212 549.648 544.905 551.459 549.095 553.021C553.286 554.513 557.76 555.791 562.518 556.857L582.121 561.544C591.638 563.675 600.374 566.516 608.328 570.067C616.283 573.618 623.172 577.986 628.996 583.17C634.82 588.355 639.33 594.463 642.526 601.494C645.793 608.526 647.462 616.587 647.533 625.678C647.462 639.03 644.053 650.607 637.305 660.408C630.629 670.138 620.97 677.702 608.328 683.099C595.757 688.426 580.594 691.089 562.838 691.089C545.224 691.089 529.884 688.391 516.815 682.993C503.818 677.595 493.662 669.605 486.347 659.023C479.102 648.369 475.303 635.195 474.947 619.499H519.585C520.082 626.814 522.178 632.922 525.871 637.822C529.635 642.652 534.642 646.31 540.892 648.795C547.213 651.21 554.351 652.418 562.305 652.418C570.118 652.418 576.901 651.281 582.653 649.009C588.477 646.736 592.987 643.575 596.183 639.527C599.379 635.479 600.977 630.827 600.977 625.571C600.977 620.67 599.521 616.551 596.609 613.213C593.768 609.875 589.578 607.034 584.038 604.69C578.57 602.347 571.858 600.216 563.903 598.298L540.146 592.332C521.751 587.858 507.227 580.862 496.574 571.345C485.92 561.828 480.629 549.009 480.7 532.886C480.629 519.676 484.145 508.135 491.247 498.263C498.42 488.391 508.257 480.685 520.757 475.145C533.257 469.605 547.462 466.835 563.371 466.835C579.564 466.835 593.697 469.605 605.771 475.145C617.916 480.685 627.362 488.391 634.109 498.263C640.857 508.135 644.337 519.57 644.55 532.567H600.338Z" fill="white"/>
</svg>
